<svg id="Layer_1" data-name="Layer 1" xmlns="http://www.w3.org/2000/svg" viewBox="0 0 445.38098 480.53632"><defs><style>.cls-1,.cls-2,.cls-4{fill:none;stroke:#231f20;stroke-miterlimit:10;}.cls-1{stroke-width:7px;}.cls-2{stroke-width:5px;}.cls-3{fill:#231f20;}.cls-4{stroke-width:4px;}</style></defs><rect class="cls-1" x="3.5" y="3.5" width="438.38098" height="128.62675" rx="18.36"/><rect class="cls-1" x="3.5" y="181.89761" width="438.38098" height="128.62675" rx="18.36"/><path class="cls-2" d="M95.92512,107.72606H151.9294c0-22.598-12.537-40.91732-28.00208-40.91732C108.46212,66.80874,95.92512,85.12805,95.92512,107.72606Z" transform="translate(-26.36524 -5.50438)"/><circle class="cls-2" cx="123.92729" cy="49.61881" r="17.18997" transform="translate(-25.15357 96.65846) rotate(-45)"/><path class="cls-3" d="M188.6799,60.39225h84.00115c3.21726,0,3.22259-5,0-5H188.6799c-3.21726,0-3.22259,5,0,5Z" transform="translate(-26.36524 -5.50438)"/><path class="cls-3" d="M188.6799,91.24325H416.60445c3.07867,0,6.16422.06006,9.24248,0,.13279-.00259.26588,0,.39871,0,3.21726,0,3.22259-5,0-5H198.3211c-3.07867,0-6.16422-.06005-9.24248,0-.13279.0026-.26588,0-.39872,0-3.21726,0-3.22259,5,0,5Z" transform="translate(-26.36524 -5.50438)"/><path class="cls-3" d="M188.6799,238.79091h84.00115c3.21726,0,3.22259-5,0-5H188.6799c-3.21726,0-3.22259,5,0,5Z" transform="translate(-26.36524 -5.50438)"/><path class="cls-3" d="M188.6799,270.10645H416.60445c3.07867,0,6.16422.06,9.24248,0,.13279-.0026.26588,0,.39871,0,3.21726,0,3.22259-5,0-5H198.3211c-3.07867,0-6.16422-.06006-9.24248,0-.13279.00259-.26588,0-.39872,0-3.21726,0-3.22259,5,0,5Z" transform="translate(-26.36524 -5.50438)"/><rect class="cls-4" x="41.56302" y="219.96063" width="84.00115" height="52.50072" rx="7.42"/><path class="cls-4" d="M146.69752,228.32223l-32.46068,22.22945a7.98634,7.98634,0,0,1-8.73845.18727L71.685,229.65235" transform="translate(-26.36524 -5.50438)"/><path class="cls-3" d="M204.992,426.6111l38.57354,30.41041c1.85523,1.46261,4.55176,1.946,6.364,0l56.9616-61.16682,8.22679-8.83414c3.94379-4.23494-2.40651-10.61357-6.364-6.364l-56.9616,61.16682-8.22679,8.83414h6.364L211.356,420.24714c-4.49992-3.54762-10.91137,2.77889-6.364,6.364Z" transform="translate(-26.36524 -5.50438)"/><rect class="cls-1" x="97.55476" y="348.40956" width="252.16" height="128.62675" rx="64.31331"/></svg>