<svg xmlns="http://www.w3.org/2000/svg" viewBox="0 0 100 133.36241"><defs><style>.cls-1{fill:#eed9c3;}.cls-1,.cls-3,.cls-4,.cls-5,.cls-6,.cls-7,.cls-8{fill-rule:evenodd;}.cls-2,.cls-8{fill:#353535;}.cls-3{fill:#a78347;}.cls-4{fill:#e3b261;}.cls-5{fill:#d4d4d4;}.cls-6{fill:#d5d5d5;}.cls-7{fill:#e6e6e6;}</style></defs><g id="Layer_2" data-name="Layer 2"><g id="Layer_1-2" data-name="Layer 1"><path class="cls-1" d="M19.81526,79.20608l10.16782-35.2163H70.6546l10.16771,35.2163Z"/><ellipse class="cls-2" cx="63.36091" cy="61.85026" rx="2.87344" ry="2.8342"/><path class="cls-3" d="M44.34471,58.6278a1.805,1.805,0,0,0-1.81681-1.79219H33.96013a1.80483,1.80483,0,0,0-1.81681,1.79219V64.177a2.70644,2.70644,0,0,0,2.72442,2.6877h3.1187a6.40446,6.40446,0,0,0,4.4963-1.83733,6.22737,6.22737,0,0,0,1.862-4.43382Z"/><path class="cls-4" d="M100,0,79.81543,10.33215l-.00024,18.10254c-3.63135-2.19165-16.56128-9.40252-29.49634-9.40252-13.86621,0-27.72925,8.28759-30.134,9.7937l-.00024-18.49372L0,0,11.06323,41.04755l8.752,8.75183V59.148l4.06738,8.02319a16.18167,16.18167,0,0,1,25.31958-8.85553l1.1167.83234,1.1167-.83234a16.18167,16.18167,0,0,1,25.31958,8.85553L80.82227,59.148v-9.986l8.11425-8.11438Z"/><path class="cls-5" d="M40.15056,74.19144,32.0163,121.32773l-11.21615-8.02321,9.18247-34.09844Z"/><path class="cls-6" d="M60.48621,74.19144l8.13425,47.13629,11.21625-8.02321L70.65415,79.20608Z"/><path class="cls-7" d="M19.815,59.148l-8.1343,30.087L21.84855,109.293l8.1343-30.08695Z"/><path class="cls-7" d="M80.82185,59.148l8.13426,30.087L78.78817,109.293,70.65392,79.20608Z"/><path class="cls-7" d="M40.15079,74.19144l-9.1511,49.14214L50.3185,133.36241l19.319-10.02883L60.48644,74.19144,51.07719,69.551l-.75869-.374Z"/><path class="cls-8" d="M53.96261,76.19729H46.84519v2.50915a3.48262,3.48262,0,0,0,1.04215,2.48019,3.581,3.581,0,0,0,2.51462,1.028h.00388a3.581,3.581,0,0,0,2.51462-1.028,3.48262,3.48262,0,0,0,1.04215-2.48019Z"/></g></g></svg>